<?xml version="1.0" standalone="no"?><!DOCTYPE svg PUBLIC "-//W3C//DTD SVG 1.1//EN" "http://www.w3.org/Graphics/SVG/1.1/DTD/svg11.dtd"><svg class="icon" width="128px" height="128.00px" viewBox="0 0 1024 1024" version="1.1" xmlns="http://www.w3.org/2000/svg"><path fill="#d81e06" d="M723.953778 170.666667H314.268444C234.965333 170.666667 170.666667 234.894222 170.666667 314.126222v409.941334C170.666667 803.328 234.965333 867.555556 314.268444 867.555556h409.685334C803.271111 867.555556 867.555556 803.313778 867.555556 724.067556V314.126222C867.555556 234.908444 803.242667 170.666667 723.953778 170.666667zM261.603556 349.937778c0-47.502222 38.542222-85.987556 86.058666-85.987556h335.900445a86.030222 86.030222 0 0 1 86.058666 85.987556v150.897778a86.044444 86.044444 0 0 1-86.044444 85.987555H347.648a86.030222 86.030222 0 0 1-86.058667-86.001778v-150.897777z m179.882666 384.199111c0 15.644444-12.714667 28.344889-28.387555 28.344889h-32.540445v32.497778a28.387556 28.387556 0 0 1-28.401778 28.359111h-9.671111a28.373333 28.373333 0 0 1-28.387555-28.359111v-32.497778h-32.540445a28.387556 28.387556 0 0 1-28.401777-28.359111v-9.671111c0-15.658667 12.714667-28.359111 28.387555-28.359112h32.540445v-32.512c0-15.644444 12.714667-28.344889 28.387555-28.344888h9.685333c15.672889 0 28.387556 12.686222 28.387556 28.344888v32.512h32.540444c15.687111 0 28.387556 12.700444 28.387556 28.359112v9.671111z m146.062222 45.653333a50.517333 50.517333 0 0 1 0-100.977778 50.503111 50.503111 0 0 1 50.531556 50.488889 50.545778 50.545778 0 0 1-50.531556 50.488889z m138.439112-50.488889a50.503111 50.503111 0 1 1 0-100.992 50.517333 50.517333 0 0 1 50.545777 50.488889 50.517333 50.517333 0 0 1-50.545777 50.488889z"  /></svg>